HIERARCHY
ROOT Root
{
  OFFSET 0.0 0.0 0.0
  CHANNELS 6 Xposition Yposition Zposition Zrotation Yrotation Xrotation
  JOINT Hips
  {
    OFFSET 0.0 100.0 0.0
    CHANNELS 6 Xposition Yposition Zposition Zrotation Yrotation Xrotation
    JOINT Spine1
    {
      OFFSET -0.013727 5.003763 -0.053727
      CHANNELS 3 Zrotation Yrotation Xrotation
      JOINT Spine2
      {
        OFFSET -0.0 7.125301 -0.029825
        CHANNELS 3 Zrotation Yrotation Xrotation
        JOINT Chest
        {
          OFFSET -1e-06 7.550063 -0.815971
          CHANNELS 3 Zrotation Yrotation Xrotation
          JOINT Neck1
          {
            OFFSET -0.181677 26.311295 -0.553348
            CHANNELS 3 Zrotation Yrotation Xrotation
            JOINT Neck2
            {
              OFFSET -3e-06 7.709397 2.302585
              CHANNELS 3 Zrotation Yrotation Xrotation
              JOINT Head
              {
                OFFSET -5e-06 6.128916 1.953709
                CHANNELS 3 Zrotation Yrotation Xrotation
                JOINT HeadEnd
                {
                  OFFSET 0.003598 16.065403 -1.835379
                  CHANNELS 3 Zrotation Yrotation Xrotation
                }
                JOINT Jaw
                {
                  OFFSET 0.002637 0.475592 3.094941
                  CHANNELS 3 Zrotation Yrotation Xrotation
                }
                JOINT LeftEye
                {
                  OFFSET 3.206381 5.380205 7.586883
                  CHANNELS 3 Zrotation Yrotation Xrotation
                }
                JOINT RightEye
                {
                  OFFSET -3.22244 5.361869 7.558234
                  CHANNELS 3 Zrotation Yrotation Xrotation
                }
              }
            }
          }
          JOINT LeftShoulder
          {
            OFFSET 1.621652 23.237164 5.113413
            CHANNELS 3 Zrotation Yrotation Xrotation
            JOINT LeftArm
            {
              OFFSET 14.919846 2e-06 -5.502326
              CHANNELS 3 Zrotation Yrotation Xrotation
              JOINT LeftForeArm
              {
                OFFSET 28.739307 0.0 -0.002588
                CHANNELS 3 Zrotation Yrotation Xrotation
                JOINT LeftHand
                {
                  OFFSET 27.093981 -1e-06 0.002609
                  CHANNELS 3 Zrotation Yrotation Xrotation
                  JOINT LeftHandThumb1
                  {
                    OFFSET 2.276482 -1.392045 3.191413
                    CHANNELS 3 Zrotation Yrotation Xrotation
                    JOINT LeftHandThumb2
                    {
                      OFFSET 4.012836 -1.828127 1.641654
                      CHANNELS 3 Zrotation Yrotation Xrotation
                      JOINT LeftHandThumb3
                      {
                        OFFSET 2.798515 0.0 -3e-06
                        CHANNELS 3 Zrotation Yrotation Xrotation
                        JOINT LeftHandThumbEnd
                        {
                          OFFSET 3.180793 -4e-06 4e-06
                          CHANNELS 3 Zrotation Yrotation Xrotation
                        }
                      }
                    }
                  }
                  JOINT LeftHandIndex1
                  {
                    OFFSET 3.247555 -0.531998 2.296169
                    CHANNELS 3 Zrotation Yrotation Xrotation
                    JOINT LeftHandIndex2
                    {
                      OFFSET 6.364578 0.01206 0.1786
                      CHANNELS 3 Zrotation Yrotation Xrotation
                      JOINT LeftHandIndex3
                      {
                        OFFSET 3.662364 0.0 0.0
                        CHANNELS 3 Zrotation Yrotation Xrotation
                        JOINT LeftHandIndex4
                        {
                          OFFSET 2.329242 4e-06 4e-06
                          CHANNELS 3 Zrotation Yrotation Xrotation
                          JOINT LeftHandIndexEnd
                          {
                            OFFSET 2.759615 -0.180537 -0.113024
                            CHANNELS 3 Zrotation Yrotation Xrotation
                          }
                        }
                      }
                    }
                  }
                  JOINT LeftHandMiddle1
                  {
                    OFFSET 3.163495 0.240981 1.000332
                    CHANNELS 3 Zrotation Yrotation Xrotation
                    JOINT LeftHandMiddle2
                    {
                      OFFSET 6.19078 -0.259278 -1.002548
                      CHANNELS 3 Zrotation Yrotation Xrotation
                      JOINT LeftHandMiddle3
                      {
                        OFFSET 4.35652 -4e-06 -1e-06
                        CHANNELS 3 Zrotation Yrotation Xrotation
                        JOINT LeftHandMiddle4
                        {
                          OFFSET 2.996877 -8e-06 0.0
                          CHANNELS 3 Zrotation Yrotation Xrotation
                          JOINT LeftHandMiddleEnd
                          {
                            OFFSET 2.304287 -0.294569 -0.031741
                            CHANNELS 3 Zrotation Yrotation Xrotation
                          }
                        }
                      }
                    }
                  }
                  JOINT LeftHandRing1
                  {
                    OFFSET 2.882643 -0.053652 -0.322543
                    CHANNELS 3 Zrotation Yrotation Xrotation
                    JOINT LeftHandRing2
                    {
                      OFFSET 5.854541 -0.486202 -1.373841
                      CHANNELS 3 Zrotation Yrotation Xrotation
                      JOINT LeftHandRing3
                      {
                        OFFSET 4.350578 0.0 3e-06
                        CHANNELS 3 Zrotation Yrotation Xrotation
                        JOINT LeftHandRing4
                        {
                          OFFSET 2.651321 7e-06 2e-06
                          CHANNELS 3 Zrotation Yrotation Xrotation
                          JOINT LeftHandRingEnd
                          {
                            OFFSET 1.936105 0.077687 -7.1e-05
                            CHANNELS 3 Zrotation Yrotation Xrotation
                          }
                        }
                      }
                    }
                  }
                  JOINT LeftHandPinky1
                  {
                    OFFSET 2.8655 -0.310005 -1.600378
                    CHANNELS 3 Zrotation Yrotation Xrotation
                    JOINT LeftHandPinky2
                    {
                      OFFSET 5.087849 -1.331141 -1.77123
                      CHANNELS 3 Zrotation Yrotation Xrotation
                      JOINT LeftHandPinky3
                      {
                        OFFSET 3.070974 4e-06 0.0
                        CHANNELS 3 Zrotation Yrotation Xrotation
                        JOINT LeftHandPinky4
                        {
                          OFFSET 1.549672 0.0 1e-06
                          CHANNELS 3 Zrotation Yrotation Xrotation
                          JOINT LeftHandPinkyEnd
                          {
                            OFFSET 1.944893 -0.157802 0.057219
                            CHANNELS 3 Zrotation Yrotation Xrotation
                          }
                        }
                      }
                    }
                  }
                }
              }
            }
          }
          JOINT RightShoulder
          {
            OFFSET -1.380118 23.180309 5.214158
            CHANNELS 3 Zrotation Yrotation Xrotation
            JOINT RightArm
            {
              OFFSET -15.037196 1.2e-05 -5.545604
              CHANNELS 3 Zrotation Yrotation Xrotation
              JOINT RightForeArm
              {
                OFFSET -28.736639 2e-06 -0.002597
                CHANNELS 3 Zrotation Yrotation Xrotation
                JOINT RightHand
                {
                  OFFSET -27.133619 -0.0 0.002613
                  CHANNELS 3 Zrotation Yrotation Xrotation
                  JOINT RightHandThumb1
                  {
                    OFFSET -2.274032 -1.383988 3.163127
                    CHANNELS 3 Zrotation Yrotation Xrotation
                    JOINT RightHandThumb2
                    {
                      OFFSET -4.011429 -1.827466 1.640914
                      CHANNELS 3 Zrotation Yrotation Xrotation
                      JOINT RightHandThumb3
                      {
                        OFFSET -2.794935 -4e-06 -3e-06
                        CHANNELS 3 Zrotation Yrotation Xrotation
                        JOINT RightHandThumbEnd
                        {
                          OFFSET -3.183852 4e-06 1e-06
                          CHANNELS 3 Zrotation Yrotation Xrotation
                        }
                      }
                    }
                  }
                  JOINT RightHandIndex1
                  {
                    OFFSET -3.253266 -0.520057 2.282866
                    CHANNELS 3 Zrotation Yrotation Xrotation
                    JOINT RightHandIndex2
                    {
                      OFFSET -6.341917 0.012471 0.178266
                      CHANNELS 3 Zrotation Yrotation Xrotation
                      JOINT RightHandIndex3
                      {
                        OFFSET -3.654871 -8e-06 -0.0
                        CHANNELS 3 Zrotation Yrotation Xrotation
                        JOINT RightHandIndex4
                        {
                          OFFSET -2.327586 0.0 1e-06
                          CHANNELS 3 Zrotation Yrotation Xrotation
                          JOINT RightHandIndexEnd
                          {
                            OFFSET -2.76179 -0.180656 -0.113078
                            CHANNELS 3 Zrotation Yrotation Xrotation
                          }
                        }
                      }
                    }
                  }
                  JOINT RightHandMiddle1
                  {
                    OFFSET -3.168106 0.246593 1.00103
                    CHANNELS 3 Zrotation Yrotation Xrotation
                    JOINT RightHandMiddle2
                    {
                      OFFSET -6.180828 -0.258836 -1.000895
                      CHANNELS 3 Zrotation Yrotation Xrotation
                      JOINT RightHandMiddle3
                      {
                        OFFSET -4.348901 0.0 -0.0
                        CHANNELS 3 Zrotation Yrotation Xrotation
                        JOINT RightHandMiddle4
                        {
                          OFFSET -3.00024 -4e-06 -2e-06
                          CHANNELS 3 Zrotation Yrotation Xrotation
                          JOINT RightHandMiddleEnd
                          {
                            OFFSET -2.30252 -0.29437 -0.031706
                            CHANNELS 3 Zrotation Yrotation Xrotation
                          }
                        }
                      }
                    }
                  }
                  JOINT RightHandRing1
                  {
                    OFFSET -2.88569 -0.067952 -0.308858
                    CHANNELS 3 Zrotation Yrotation Xrotation
                    JOINT RightHandRing2
                    {
                      OFFSET -5.854198 -0.48613 -1.373731
                      CHANNELS 3 Zrotation Yrotation Xrotation
                      JOINT RightHandRing3
                      {
                        OFFSET -4.33881 -4e-06 -0.0
                        CHANNELS 3 Zrotation Yrotation Xrotation
                        JOINT RightHandRing4
                        {
                          OFFSET -2.654903 -4e-06 4e-06
                          CHANNELS 3 Zrotation Yrotation Xrotation
                          JOINT RightHandRingEnd
                          {
                            OFFSET -1.933568 0.077527 -5.2e-05
                            CHANNELS 3 Zrotation Yrotation Xrotation
                          }
                        }
                      }
                    }
                  }
                  JOINT RightHandPinky1
                  {
                    OFFSET -2.866425 -0.342796 -1.584145
                    CHANNELS 3 Zrotation Yrotation Xrotation
                    JOINT RightHandPinky2
                    {
                      OFFSET -5.091371 -1.332055 -1.772385
                      CHANNELS 3 Zrotation Yrotation Xrotation
                      JOINT RightHandPinky3
                      {
                        OFFSET -3.062664 -4e-06 1e-06
                        CHANNELS 3 Zrotation Yrotation Xrotation
                        JOINT RightHandPinky4
                        {
                          OFFSET -1.546529 4e-06 -2e-06
                          CHANNELS 3 Zrotation Yrotation Xrotation
                          JOINT RightHandPinkyEnd
                          {
                            OFFSET -1.945119 -0.157718 0.057211
                            CHANNELS 3 Zrotation Yrotation Xrotation
                          }
                        }
                      }
                    }
                  }
                }
              }
            }
          }
        }
      }
    }
    JOINT LeftLeg
    {
      OFFSET 10.043214 -8.434526 2.595655
      CHANNELS 3 Zrotation Yrotation Xrotation
      JOINT LeftShin
      {
        OFFSET -1e-06 -43.221752 -0.802913
        CHANNELS 3 Zrotation Yrotation Xrotation
        JOINT LeftFoot
        {
          OFFSET 1e-06 -42.155094 -3.481523
          CHANNELS 3 Zrotation Yrotation Xrotation
          JOINT LeftToeBase
          {
            OFFSET 0.0 -5.059472 13.231529
            CHANNELS 3 Zrotation Yrotation Xrotation
            JOINT LeftToeEnd
            {
              OFFSET -0.009607 -1.647619 6.513017
              CHANNELS 3 Zrotation Yrotation Xrotation
            }
          }
        }
      }
    }
    JOINT RightLeg
    {
      OFFSET -10.047278 -8.29526 2.620317
      CHANNELS 3 Zrotation Yrotation Xrotation
      JOINT RightShin
      {
        OFFSET 1e-06 -43.362206 -0.805556
        CHANNELS 3 Zrotation Yrotation Xrotation
        JOINT RightFoot
        {
          OFFSET 2e-06 -42.117393 -3.478398
          CHANNELS 3 Zrotation Yrotation Xrotation
          JOINT RightToeBase
          {
            OFFSET -0.0 -5.079609 13.284196
            CHANNELS 3 Zrotation Yrotation Xrotation
            JOINT RightToeEnd
            {
              OFFSET 0.009532 -1.634378 6.460591
              CHANNELS 3 Zrotation Yrotation Xrotation
            }
          }
        }
      }
    }
  }
}
MOTION
Frames: 4
Frame Time: 0.03333333333333333
0.0 0.0 0.0 0.0 -0.0 0.0 -3.576619 99.528351 3.928572 0.254126 0.176176 1.795022 0.333985 -0.157484 -3.919665 -0.478273 -0.642428 -6.387865 -0.521224 -2.379516 10.945574 -1.112644 3.142496 0.564718 -0.464176 1.364577 -3.530513 1.141613 0.220955 -4.294725 7.7e-05 -2.2e-05 6e-06 0.008816 -0.021595 0.024236 0.762286 -3.736621 -10.58764 -0.747349 3.700413 -10.603811 -13.593171 -10.377997 13.457816 -60.783897 -4.080396 24.968786 -0.432286 -29.401243 0.229056 10.669264 5.479107 -22.801464 -5.882115 9.861297 0.70259 -10.936887 -0.360574 7.156212 0.0 8.774835 -1e-06 -16.006279 17.734119 6.039538 -1.844035 2.498507 -2.50728 -10.163614 4.678949 4.621113 -20.976055 -3e-06 1e-06 -21.226318 2.451699 -3.594006 -0.0 -6e-06 -0.0 -1.362684 2.240801 -0.746324 -21.334944 0.58491 3.008323 -13.821235 -3e-06 1e-06 -23.887205 -0.24908 -0.839487 -59.956829 2.720228 -1.168856 -0.294025 1.67969 0.833257 -14.218227 0.093214 1.30058 -34.212097 -0.287566 0.967168 -20.033241 0.964537 1.212844 0.0 1e-06 -0.0 -3.440392 0.788234 0.501657 -15.928206 -3.167312 2.999708 -6.338835 -1e-06 1e-06 -18.12347 3.648185 -4.905678 -3e-06 0.0 -2e-06 17.334784 13.70469 15.968016 57.458843 9.3963 33.093727 0.331283 26.422905 -0.00656 -6.464355 1.068798 -12.891324 2.243543 -5.25504 -3.180159 14.282904 -0.826595 6.952508 -3e-06 -12.690616 1e-06 16.376245 -17.851196 2.429362 1.665667 -1.955922 -2.8783 4.727803 -4.170591 4.993927 11.020536 3e-06 -1e-06 12.109062 -3.735718 -2.866786 -1e-06 -1e-06 -0.0 1.291986 -1.92855 -1.498089 14.80014 0.567469 3.865611 14.242582 -1.341736 -6.660662 19.631985 0.143927 -0.648245 49.746845 -0.485237 -6.568627 0.353029 -1.511152 -0.031942 20.222809 3.684314 2.316632 18.787289 6e-06 -1e-06 10.751637 -0.479868 1.397905 -1e-06 0.0 -1e-06 3.27381 0.305948 -0.580111 21.486834 11.830384 2.266133 8.162935 3e-06 -1e-06 18.399099 -3.798986 -4.94058 3e-06 -1e-06 -1e-06 5.60755 10.89517 -4.107201 0.010768 0.058092 11.27789 -9.883241 3.111533 -8.021992 1.575439 -1.963577 -0.28146 0.0 -0.0 2e-06 -5.69799 -2.132458 -3.109658 0.019514 0.035232 10.591498 7.777343 -5.368242 -9.231259 -1.410168 1.038609 0.102961 0.0 0.0 -1e-06 
0.0 0.0 0.0 0.0 -0.0 0.0 -3.471074 99.534271 3.93959 0.155137 0.366227 1.896521 0.398971 -0.149355 -3.839773 -0.455879 -0.603332 -6.360269 -0.541474 -2.426361 10.826295 -0.997805 3.140869 0.481556 -0.476643 1.277362 -3.527008 1.070736 0.082813 -4.418761 7.7e-05 -2.2e-05 6e-06 0.004946 -0.008119 0.016405 0.754201 -3.722504 -10.580421 -0.746963 3.713178 -10.599925 -13.431825 -10.485366 13.447812 -60.880447 -4.185822 24.647612 -0.611342 -29.40991 0.247813 10.763987 5.533211 -22.501675 -5.882108 9.86129 0.70259 -10.936874 -0.360575 7.156209 -1e-06 8.774828 -1e-06 -16.035387 17.73456 6.050472 -1.844033 2.498505 -2.507279 -10.163602 4.678946 4.62111 -20.976027 -1e-06 3e-06 -21.226288 2.451699 -3.594001 -1e-06 -7e-06 1e-06 -1.362682 2.240799 -0.746325 -21.334917 0.58491 3.008324 -13.821215 -2e-06 3e-06 -23.887173 -0.249076 -0.839482 -59.992184 2.763001 -1.070819 -0.294025 1.679688 0.833257 -14.218212 0.093215 1.300581 -34.212055 -0.287561 0.96717 -20.033218 0.964539 1.212844 0.0 -1e-06 -0.0 -3.440389 0.788234 0.501655 -15.928189 -3.16731 2.999709 -6.338829 -0.0 1e-06 -18.123453 3.648184 -4.905671 -4e-06 1e-06 -1e-06 17.490065 13.698317 16.167269 57.336277 9.53304 32.988678 0.32427 26.749722 -0.011214 -6.505147 1.328511 -12.565642 2.243543 -5.255039 -3.180161 14.282895 -0.826596 6.952505 -2e-06 -12.690605 1e-06 16.357155 -17.832708 2.413291 1.665667 -1.955922 -2.878301 4.727799 -4.170587 4.993925 11.020529 2e-06 0.0 12.109056 -3.735717 -2.866786 -1e-06 -0.0 -0.0 1.291986 -1.92855 -1.498088 14.800132 0.567466 3.865609 14.242577 -1.341737 -6.660659 19.631973 0.143926 -0.648246 49.811558 -0.477186 -6.558263 0.353029 -1.51115 -0.031938 20.222797 3.684308 2.316631 18.787279 4e-06 -2e-06 10.751633 -0.479869 1.397905 -1e-06 1e-06 -1e-06 3.273807 0.305947 -0.580111 21.486816 11.830376 2.266132 8.16293 2e-06 -2e-06 18.399088 -3.798985 -4.940576 3e-06 -0.0 -1e-06 5.619749 10.770634 -4.396811 -0.001198 -0.009551 11.568523 -9.922869 3.169999 -8.166375 1.575163 -1.978739 -0.375272 0.0 -1e-06 2e-06 -5.61916 -2.018904 -3.011516 0.02239 0.055378 10.216729 7.741951 -5.665551 -9.104557 -1.417279 1.016607 0.066504 -0.0 0.0 -1e-06 
0.0 0.0 0.0 0.0 -0.0 0.0 -3.329348 99.500801 3.85805 -0.061887 0.643629 2.072958 0.545276 -0.15871 -3.719494 -0.425296 -0.612361 -6.327528 -0.505085 -2.452951 10.703513 -0.808865 3.122612 0.295263 -0.496662 1.171904 -3.563638 0.945336 -0.079398 -4.542865 7.7e-05 -2.2e-05 6e-06 0.002692 -0.011357 0.011041 0.745987 -3.724608 -10.590957 -0.743383 3.708414 -10.606826 -13.14971 -10.596646 13.412352 -61.039455 -4.250141 24.387091 -0.785091 -29.776531 0.261265 10.864148 5.681982 -22.451832 -5.882109 9.861292 0.702591 -10.936877 -0.360577 7.156207 1e-06 8.774831 -1e-06 -16.071617 17.784809 6.037007 -1.844033 2.498507 -2.507278 -10.163604 4.678947 4.621109 -20.976032 -5e-06 3e-06 -21.226295 2.451698 -3.594002 -0.0 -7e-06 0.0 -1.362681 2.240799 -0.746323 -21.334923 0.584908 3.008322 -13.82122 -4e-06 2e-06 -23.887178 -0.24908 -0.839483 -60.019402 2.803416 -1.110983 -0.294025 1.679689 0.833257 -14.218215 0.093214 1.30058 -34.212063 -0.287566 0.96717 -20.03322 0.964536 1.212845 1e-06 -0.0 -0.0 -3.44039 0.788235 0.501655 -15.928192 -3.167312 2.999707 -6.338829 -1e-06 -0.0 -18.123453 3.648185 -4.905671 -4e-06 0.0 -1e-06 17.586628 13.709153 16.314129 57.160236 9.640033 32.938133 0.265759 27.552631 -0.041214 -6.732348 1.679117 -12.069053 2.243545 -5.255042 -3.180159 14.282905 -0.826596 6.952508 -2e-06 -12.690619 0.0 16.320805 -17.791996 2.433076 1.665669 -1.955923 -2.878301 4.727803 -4.170592 4.993926 11.020536 2e-06 -3e-06 12.109062 -3.73572 -2.866789 -1e-06 0.0 2e-06 1.291988 -1.928552 -1.49809 14.800142 0.567468 3.865607 14.242586 -1.341739 -6.660665 19.631987 0.143927 -0.648247 49.812069 -0.497894 -6.55356 0.353029 -1.511152 -0.031939 20.222809 3.684312 2.316629 18.787291 3e-06 -5e-06 10.751639 -0.479868 1.397904 2e-06 1e-06 -2e-06 3.27381 0.305948 -0.580112 21.486832 11.830387 2.26613 8.162937 3e-06 -3e-06 18.399103 -3.798989 -4.940582 4e-06 -1e-06 -1e-06 5.712634 10.633581 -5.212262 -0.003506 -0.065085 12.594724 -9.83999 3.104666 -8.590649 1.576043 -1.997383 -0.447797 0.0 0.0 2e-06 -5.442327 -1.898725 -3.183275 0.027547 0.057664 10.194976 7.71436 -6.077379 -9.093301 -1.418808 1.005743 0.101278 0.0 0.0 -1e-06 
0.0 0.0 0.0 0.0 -0.0 0.0 -3.127285 99.423027 3.710437 -0.499879 0.992005 2.310705 0.788177 -0.168989 -3.507982 -0.378555 -0.648101 -6.26773 -0.351976 -2.498309 10.533655 -0.522137 3.022575 -0.006309 -0.510099 1.129666 -3.590711 0.831446 -0.249012 -4.8338 7.7e-05 -2.2e-05 6e-06 0.000813 -0.029571 0.009975 0.738309 -3.741689 -10.598248 -0.739478 3.688511 -10.607454 -12.707497 -10.692307 13.394275 -61.274174 -4.323969 24.280983 -0.943725 -30.504807 0.281268 11.078785 5.749124 -22.476347 -5.882108 9.861286 0.702589 -10.936877 -0.360577 7.156208 3e-06 8.774826 -1e-06 -16.060698 17.797991 6.024046 -1.844033 2.498504 -2.507279 -10.163605 4.678944 4.621108 -20.976036 -8e-06 3e-06 -21.226301 2.451692 -3.593999 -1e-06 -6e-06 0.0 -1.362682 2.240798 -0.746323 -21.334925 0.584905 3.008322 -13.821221 -6e-06 2e-06 -23.887182 -0.249085 -0.839481 -60.023846 2.815079 -1.151683 -0.294024 1.679686 0.833256 -14.218215 0.093212 1.30058 -34.212067 -0.287571 0.96717 -20.033222 0.964534 1.212844 0.0 1e-06 -0.0 -3.44039 0.788233 0.501655 -15.928198 -3.167313 2.999709 -6.33883 -3e-06 1e-06 -18.123457 3.648179 -4.905669 -4e-06 1e-06 -1e-06 17.604189 13.684855 16.403677 56.887119 9.749648 33.025749 0.11603 29.083765 -0.102686 -7.130479 2.28564 -11.534514 2.24354 -5.255034 -3.180157 14.282888 -0.82659 6.952499 -7e-06 -12.690604 2e-06 16.254133 -17.764345 2.470861 1.665666 -1.955919 -2.878299 4.727797 -4.170585 4.993922 11.020526 6e-06 -1e-06 12.109052 -3.735712 -2.866781 0.0 0.0 1e-06 1.291985 -1.928548 -1.49809 14.800129 0.567472 3.865604 14.242571 -1.341731 -6.660657 19.631969 0.143932 -0.648244 49.752712 -0.542985 -6.540718 0.353029 -1.511152 -0.03194 20.222794 3.684317 2.316629 18.78727 1e-05 -1e-06 10.751627 -0.479866 1.397906 2e-06 0.0 0.0 3.273807 0.305947 -0.580113 21.486818 11.830381 2.26613 8.162927 6e-06 -1e-06 18.399078 -3.798979 -4.940573 3e-06 -0.0 -0.0 6.005579 10.693456 -6.533598 -0.00246 -0.10474 14.392045 -9.642723 2.811452 -9.309715 1.579483 -2.001074 -0.521121 0.0 0.0 2e-06 -5.052532 -1.736515 -3.542772 0.025925 0.055375 10.31703 7.658768 -6.591988 -9.109364 -1.418817 1.013672 0.154169 0.0 -0.0 -1e-06 
